<svg width="56" height="56" viewBox="0 0 56 56" fill="none" xmlns="http://www.w3.org/2000/svg">
<rect width="56" height="56" rx="28" fill="#0C8F61"/>
<path d="M33.5 18.5C36.5376 18.5 39 20.9624 39 24C39 25.0416 38.7083 26.0167 38.2071 26.8536L36.7929 25.4393C37.0632 24.9972 37.2143 24.5143 37.2143 24C37.2143 21.9775 35.5225 20.2857 33.5 20.2857C32.5143 20.2857 31.6143 20.6714 30.9393 21.2929L29.525 19.8786C30.4972 18.9786 31.9286 18.5 33.5 18.5Z" fill="#FAF9F7"/>
<path d="M22.5 37.5C19.4624 37.5 17 35.0376 17 32C17 30.9584 17.2917 29.9833 17.7929 29.1464L19.2071 30.5607C18.9368 31.0028 18.7857 31.4857 18.7857 32C18.7857 34.0225 20.4775 35.7143 22.5 35.7143C23.4857 35.7143 24.3857 35.3286 25.0607 34.7071L26.475 36.1214C25.5028 37.0214 24.0714 37.5 22.5 37.5Z" fill="#FAF9F7"/>
<path d="M35.5 24.5H29.5V18.5L26.5 21.5L29.5 24.5H33.5C34.3284 24.5 35 25.1716 35 26V28.5H37V26C37 24.067 35.433 22.5 33.5 22.5H35.5V24.5Z" fill="#FAF9F7"/>
<path d="M20.5 31.5H26.5V37.5L29.5 34.5L26.5 31.5H22.5C21.6716 31.5 21 30.8284 21 30V27.5H19V30C19 31.933 20.567 33.5 22.5 33.5H20.5V31.5Z" fill="#FAF9F7"/>
</svg>
